<svg version="1.1" xmlns="http://www.w3.org/2000/svg" width="486.7px" height="486.7px" viewBox="-62 153.3 486.7 486.7">
<g>
	<path fill="none" d="M185.8,425.3c-2.2-0.1-6.7-0.1-8.9,0c-21,0.8-37.5,19.2-37.5,40.5c0,11.3,4.4,21.4,11.8,28.8v67.3
		c0,7.7,6.4,14.2,14.2,14.2h31.8c7.7,0,14.2-6.5,14.2-14.2v-67.3c7.5-7.4,11.8-17.5,11.8-28.8C223.3,444.5,206.8,426.2,185.8,425.3z
		"/>
	<path fill="#ffffff" d="M344.5,350H20v-0.1c-14.2,0.6-25.7,15.4-25.7,33.7v222.6c0,18.6,11.9,33.8,26.5,33.8h321c14.6,0,26.5-15.2,26.5-33.8V383.5
		C368.4,366.1,357.9,351.7,344.5,350z M211.4,494.6v67.3c0,7.7-6.4,14.2-14.2,14.2h-31.8c-7.7,0-14.2-6.5-14.2-14.2v-67.3
		c-7.5-7.4-11.8-17.5-11.8-28.8c0-21.3,16.5-39.7,37.5-40.5c2.2-0.1,6.7-0.1,8.9,0c21,0.8,37.5,19.2,37.5,40.5
		C223.3,477.1,218.9,487.3,211.4,494.6z"/>
	<path id="lockbar" fill="#ffffff" d="M30,412.8h65.3V308.4c0-48.9,39.7-89.3,88.5-89.3c48.8,0,88.5,40.4,88.5,89.3v44.4h62.5v-44.4
		c0-82.1-65.2-150.7-146.6-152.1c-2.2,0-6.7,0-8.9,0c-81.4,1.5-146.6,70-146.6,152.1v104.4"/>
</g>
</svg>
